<?xml version="1.0" standalone="no"?>
<!DOCTYPE svg PUBLIC "-//W3C//DTD SVG 20010904//EN"
 "http://www.w3.org/TR/2001/REC-SVG-20010904/DTD/svg10.dtd">
<svg version="1.0" xmlns="http://www.w3.org/2000/svg"
 width="704.000000pt" height="704.000000pt" viewBox="0 0 704.000000 704.000000"
 preserveAspectRatio="xMidYMid meet">
<metadata>
Created by potrace 1.11, written by Peter Selinger 2001-2013
</metadata>
<g transform="translate(0.000000,704.000000) scale(0.100000,-0.100000)"
fill="#000000" stroke="none">
<path d="M884 7022 c-17 -9 -42 -33 -55 -52 l-24 -35 -3 -3334 c-2 -3327 -2
-3335 18 -3375 25 -51 56 -74 115 -85 39 -7 53 -5 98 17 29 14 54 28 57 31 3
3 17 12 33 20 15 8 27 18 27 23 0 4 4 8 10 8 5 0 74 42 152 93 79 52 154 100
167 107 14 7 30 17 35 21 23 19 148 99 154 99 4 0 20 11 36 25 16 14 35 25 43
25 7 0 13 5 13 10 0 6 4 10 9 10 7 0 130 78 343 219 26 17 52 31 57 31 5 0 11
3 13 8 2 4 122 84 268 177 146 93 300 192 342 220 43 27 120 77 170 109 51 33
129 83 173 111 44 29 141 91 215 138 74 48 142 91 150 97 46 31 122 80 126 80
2 0 29 18 61 39 78 52 307 201 363 235 25 15 117 74 205 131 88 57 205 132
260 167 55 34 102 65 105 68 3 3 51 35 108 70 109 69 130 83 359 230 81 52
152 97 158 99 5 2 12 7 15 11 4 5 44 31 185 120 94 59 282 181 292 190 7 5 14
10 17 10 3 0 45 26 93 58 48 33 99 65 112 72 14 7 30 17 35 21 22 18 148 99
154 99 16 1 59 48 75 82 36 77 13 149 -67 206 -28 21 -63 44 -78 51 -16 8 -28
18 -28 23 0 4 -4 8 -10 8 -5 0 -70 39 -144 88 -74 48 -178 114 -231 147 -53
33 -102 65 -108 70 -7 6 -30 22 -52 35 -40 24 -204 129 -259 166 -16 10 -36
24 -45 29 -34 21 -126 80 -136 88 -5 4 -79 51 -163 105 -225 143 -455 290
-472 302 -51 35 -231 150 -250 160 -13 7 -33 21 -44 31 -11 11 -23 19 -27 19
-8 0 -275 171 -296 189 -7 6 -15 11 -18 11 -3 0 -33 18 -65 40 -32 22 -62 40
-65 40 -3 0 -11 5 -18 11 -14 12 -233 154 -347 225 -41 25 -76 50 -78 55 -2 5
-8 9 -13 9 -4 0 -62 35 -128 78 -66 42 -153 98 -193 123 -40 26 -196 126 -346
223 -151 97 -276 176 -278 176 -3 0 -10 5 -17 11 -17 14 -145 97 -615 397
-211 135 -328 212 -339 221 -7 6 -14 11 -17 11 -3 0 -61 36 -130 81 -109 70
-132 81 -178 85 -37 2 -62 -1 -84 -14z m277 -459 c16 -10 29 -21 29 -25 0 -4
4 -8 10 -8 8 0 154 -92 405 -255 146 -95 387 -250 414 -266 14 -9 81 -52 148
-95 67 -44 189 -122 270 -174 82 -52 198 -126 258 -165 61 -39 145 -93 188
-121 42 -27 152 -97 243 -156 91 -60 167 -108 170 -108 3 0 10 -5 17 -10 13
-11 117 -79 387 -252 91 -58 183 -117 205 -132 22 -14 128 -82 235 -150 107
-69 200 -128 205 -133 6 -5 17 -12 25 -16 15 -7 45 -25 64 -40 10 -7 90 -59
251 -162 28 -17 95 -61 150 -97 55 -35 111 -71 125 -78 13 -7 30 -18 36 -24
12 -10 525 -340 562 -361 10 -5 64 -41 121 -79 l104 -69 -52 -32 c-49 -31
-161 -103 -341 -219 -47 -30 -137 -88 -199 -128 -63 -40 -161 -103 -218 -140
-57 -38 -108 -68 -113 -68 -6 0 -10 -3 -10 -7 0 -5 -27 -24 -60 -43 -33 -19
-60 -38 -60 -42 0 -5 -4 -8 -10 -8 -5 0 -54 -29 -107 -63 -246 -160 -305 -197
-313 -197 -4 0 -10 -3 -12 -8 -1 -4 -91 -63 -198 -132 -107 -68 -197 -127
-200 -130 -3 -4 -12 -10 -20 -13 -8 -4 -27 -15 -42 -25 -14 -9 -62 -39 -105
-66 -43 -28 -80 -54 -81 -58 -2 -4 -8 -8 -14 -8 -5 0 -24 -10 -41 -23 -18 -12
-41 -27 -52 -34 -79 -48 -171 -108 -173 -115 -2 -4 -8 -8 -14 -8 -5 0 -24 -10
-41 -23 -18 -12 -40 -27 -49 -32 -36 -21 -384 -245 -393 -253 -5 -4 -62 -41
-125 -81 -106 -67 -294 -188 -330 -211 -14 -9 -95 -62 -210 -136 -25 -16 -53
-33 -63 -39 -9 -5 -72 -46 -140 -90 -67 -43 -156 -101 -197 -127 -41 -26 -82
-52 -90 -58 -99 -66 -233 -150 -240 -150 -4 0 -10 -3 -12 -7 -3 -8 -144 -103
-151 -103 -2 0 -42 -25 -88 -55 -46 -30 -87 -55 -91 -55 -7 0 -11 105 -7 245
0 6 0 19 -1 30 -1 21 -1 220 -1 245 3 76 1 142 -3 148 -3 5 -1 25 4 45 4 22 4
39 -1 43 -5 3 -7 10 -3 15 8 13 9 167 2 175 -4 3 -2 18 2 34 4 16 6 31 3 33
-7 7 -6 194 1 206 4 5 2 12 -4 16 -6 4 -8 11 -4 16 3 6 5 46 5 90 -2 90 -2 88
0 149 0 25 0 50 -1 55 -1 6 -2 13 -1 17 0 4 1 45 1 90 -1 108 -1 105 1 158 0
25 0 50 -1 55 -1 6 -2 13 -1 17 0 4 1 45 1 90 -1 108 -1 105 1 158 0 25 0 50
-1 55 -1 6 -2 13 -1 17 0 4 1 45 1 90 -1 108 -1 105 1 158 0 25 0 50 -1 55 -4
25 0 146 5 155 3 5 1 11 -5 15 -6 4 -8 11 -4 16 8 13 9 167 2 175 -4 3 -2 18
2 34 4 16 6 31 3 33 -7 7 -6 194 1 206 4 5 2 12 -4 16 -6 4 -7 11 -4 17 4 6 6
56 5 112 -1 55 -2 108 -1 116 2 84 0 142 -4 148 -3 5 -1 25 4 45 4 22 4 39 -1
43 -5 3 -7 10 -3 15 8 13 9 167 2 175 -4 3 -2 18 2 34 4 16 6 31 3 33 -7 7 -6
194 1 206 4 5 2 12 -4 16 -6 4 -7 11 -4 17 4 6 6 56 5 112 -1 55 -2 108 -1
116 2 84 0 142 -4 148 -3 5 -1 25 4 45 4 22 4 39 -1 43 -5 3 -7 10 -3 15 8 13
9 167 2 175 -4 3 -2 18 2 34 4 16 6 31 3 33 -7 7 -6 194 1 206 4 5 2 12 -4 16
-6 4 -8 11 -4 16 3 6 5 46 5 90 -2 90 -2 88 0 149 0 25 0 50 -1 55 -1 6 -2 13
-1 17 0 4 1 45 1 90 -1 108 -1 105 1 158 0 25 0 50 -1 55 -1 6 -2 14 -1 19 1
5 2 47 1 93 -1 45 -1 91 0 101 0 9 0 27 0 40 0 27 4 27 41 5z"/>
</g>
</svg>
